<svg xmlns="http://www.w3.org/2000/svg" viewBox="0 0 27 27" width="27" height="27" fill="none" stroke="currentColor" stroke-width="1.6" stroke-linecap="round" stroke-linejoin="round">
<path d="M3 8 L3 21 Q3 22 4 22 L23 22 L25 12 L7 12 L6 9 L4 9 Q3 9 3 8 Z" fill="#c83e4d" fill-opacity="0.18" stroke="#c83e4d"/>
  <path d="M3 8 L3 6 Q3 5 4 5 L11 5 L13 7 L23 7 Q24 7 24 8 L24 11" stroke="#c83e4d"/>
  <g stroke-width="1.3" transform="translate(15 14)">
    <rect x="1" y="5" width="9" height="6" rx="1.2" fill="#0d1117" stroke="currentColor"/>
    <path d="M3 5 L3 3 Q3 1 5.5 1 Q8 1 8 3 L8 5" stroke="currentColor" fill="none"/>
  </g>
</svg>