<svg xmlns="http://www.w3.org/2000/svg" viewBox="0 0 27 27" width="27" height="27" fill="none" stroke="currentColor" stroke-width="1.6" stroke-linecap="round" stroke-linejoin="round">
<path d="M7 4 L17 4 L22 9 L22 23 Q22 24 21 24 L7 24 Q6 24 6 23 L6 5 Q6 4 7 4 Z" fill="#c83e4d" fill-opacity="0.22" stroke="#c83e4d"/>
  <path d="M17 4 L17 9 L22 9" stroke="#c83e4d"/>
  <path d="M19 4 Q22 7 21 10 Q24 9 24 12 Q24 15 21 16 Q22 13 20 12 Q21 10 19 9 Q18 6 19 4 Z" fill="#f97316" stroke="#f97316" stroke-width="1"/>
  <circle cx="22" cy="22" r="3.2" fill="#1f883d" stroke="#0d1117" stroke-width="1"/>
</svg>