<svg xmlns="http://www.w3.org/2000/svg" viewBox="0 0 22 22" width="22" height="22">
  <circle cx="11" cy="11" r="10" fill="#fcd34d" stroke="#f59e0b" stroke-width="0.7"/>
  <path d="M6 8.5 Q6 7.5 7 7.5 Q7.5 7.5 7.5 8 Q7.5 7.5 8 7.5 Q9 7.5 9 8.5 Q9 9.5 7.5 10.5 Q6 9.5 6 8.5 Z" fill="#ef4444"/><path d="M13 8.5 Q13 7.5 14 7.5 Q14.5 7.5 14.5 8 Q14.5 7.5 15 7.5 Q16 7.5 16 8.5 Q16 9.5 14.5 10.5 Q13 9.5 13 8.5 Z" fill="#ef4444"/><path d="M7 13 Q11 17 15 13" stroke="#374151" stroke-width="1.4" fill="none" stroke-linecap="round"/>
  
</svg>